<?xml version="1.0" encoding="utf-8"?>
<!-- Generator: Adobe Illustrator 26.5.0, SVG Export Plug-In . SVG Version: 6.00 Build 0)  -->
<svg version="1.1" id="Camada_2_00000034772225727778533710000007197162240344826813_"
	 xmlns="http://www.w3.org/2000/svg" xmlns:xlink="http://www.w3.org/1999/xlink" x="0px" y="0px" viewBox="0 0 379.8 125.2"
	 style="enable-background:new 0 0 379.8 125.2;" xml:space="preserve">
<style type="text/css">
	.st0{fill:#E41B16;}
	.st1{enable-background:new    ;}
	.st2{fill:#91989C;}
</style>
<g>
	<g>
		<path class="st0" d="M175.9,0.4c-37.6,1.2-72.6,5.4-102.5,11.7c17.7-1.8,36.3-3,55.5-3.6c122-3.9,221.7,18.5,222.8,50.1
			c1,29.4-83.8,56.3-193.9,63.1c7.3,0,14.7-0.1,22.2-0.3c111.5-3.6,200.9-33.5,199.8-66.9C378.6,21,287.4-3.2,175.9,0.4"/>
	</g>
	<g class="st1">
		<path class="st2" d="M3,92.2l13.1-62.6H29L15.9,92.2H3z"/>
		<path class="st2" d="M58.5,75.2l11.9,1.9c-2,5.3-4.9,9.3-8.7,12.1c-3.8,2.8-8.3,4.1-13.4,4.1c-5.8,0-10.4-1.7-13.7-5.2
			c-3.4-3.4-5.1-8.2-5.1-14.2c0-4.9,1-9.6,3.1-14c2-4.4,5.1-7.8,9.3-10.4c4.1-2.5,8.7-3.8,13.6-3.8c5.4,0,9.6,1.4,12.8,4.2
			c3.2,2.8,5,6.5,5.4,11L62,62.3c-0.3-2.5-1.1-4.4-2.3-5.6c-1.3-1.2-2.9-1.8-5-1.8c-2.4,0-4.6,0.9-6.6,2.6c-2,1.8-3.6,4.4-4.7,7.9
			c-1.1,3.5-1.6,6.8-1.6,9.9c0,2.7,0.7,4.7,2,6.2c1.3,1.5,2.9,2.2,4.9,2.2c2,0,3.9-0.7,5.7-2.1C56.1,80.1,57.5,78,58.5,75.2z"/>
		<path class="st2" d="M85.9,46.9h12.3l-9.5,45.3H76.4L85.9,46.9z M89.5,29.6h12.3l-2.3,11.1H87.2L89.5,29.6z"/>
		<path class="st2" d="M100.6,92.2l13.1-62.6H126l-13.1,62.6H100.6z"/>
		<path class="st2" d="M169.2,73.4h-30.7c0,0.5,0,0.9,0,1.1c0,3,0.9,5.5,2.6,7.3c1.7,1.9,3.8,2.8,6.3,2.8c4.1,0,7.2-2.1,9.5-6.3
			l11,1.8c-2.1,4.4-5,7.7-8.6,9.9c-3.6,2.2-7.6,3.3-12,3.3c-6.1,0-11-1.9-14.9-5.8c-3.8-3.9-5.7-9-5.7-15.3c0-6.2,1.7-11.7,5.2-16.6
			c4.7-6.5,11.4-9.8,20.1-9.8c5.6,0,10,1.7,13.2,5.1c3.3,3.4,4.9,8.2,4.9,14.4C170,68.3,169.7,71,169.2,73.4z M158.8,65.9
			c0-0.5,0-1,0-1.2c0-3.4-0.8-5.9-2.3-7.6s-3.5-2.5-6.1-2.5c-2.5,0-4.8,1-6.8,2.9c-2,1.9-3.4,4.7-4.1,8.5H158.8z"/>
		<path class="st2" d="M173,94.6l12.9,1.9c0,1.3,0.2,2.3,0.6,3c0.4,0.7,1.1,1.2,2.1,1.7c1,0.5,2.3,0.7,3.9,0.7
			c2.6,0,4.7-0.5,6.2-1.5c1.2-0.8,2.1-2.1,2.9-3.8c0.5-1.1,1-3.5,1.8-7.3l0.4-2.1c-4.2,3.5-8.6,5.3-13.2,5.3
			c-4.4,0-8.1-1.6-10.9-4.7c-2.8-3.1-4.3-7.7-4.3-13.7c0-5.3,1-10.2,2.9-14.6c1.9-4.4,4.7-7.8,8.2-10.1c3.5-2.3,7.1-3.4,10.7-3.4
			c3,0,5.8,0.8,8.3,2.4c2.5,1.6,4.5,3.8,5.8,6.7l1.7-8h11.5l-7.9,37.8c-1.3,6.1-2.4,10.4-3.2,13s-1.9,4.7-3,6.2
			c-1.1,1.5-2.6,2.8-4.3,3.9c-1.7,1-3.8,1.8-6.1,2.2c-2.4,0.5-4.9,0.7-7.7,0.7c-6.4,0-11.2-1.1-14.5-3.3s-4.9-5.8-4.9-10.9
			C172.9,95.9,172.9,95.3,173,94.6z M187.5,72.7c0,3.4,0.8,6.1,2.3,7.9c1.6,1.8,3.5,2.7,5.8,2.7c2.1,0,4.2-0.8,6.2-2.4
			c2-1.6,3.5-3.9,4.6-6.9c1.1-3,1.6-5.9,1.6-8.7c0-3.2-0.9-5.8-2.6-7.8c-1.7-2-3.7-2.9-6-2.9c-2.2,0-4.2,0.9-6,2.6s-3.4,4.4-4.5,8
			C187.9,68,187.5,70.5,187.5,72.7z"/>
		<path class="st2" d="M271.2,73.4h-30.7c0,0.5,0,0.9,0,1.1c0,3,0.9,5.5,2.6,7.3c1.7,1.9,3.8,2.8,6.3,2.8c4.1,0,7.2-2.1,9.5-6.3
			l11,1.8c-2.1,4.4-5,7.7-8.6,9.9c-3.6,2.2-7.6,3.3-12,3.3c-6.1,0-11-1.9-14.9-5.8c-3.8-3.9-5.7-9-5.7-15.3c0-6.2,1.7-11.7,5.2-16.6
			c4.7-6.5,11.4-9.8,20.1-9.8c5.6,0,10,1.7,13.2,5.1c3.3,3.4,4.9,8.2,4.9,14.4C272.1,68.3,271.8,71,271.2,73.4z M260.9,65.9
			c0-0.5,0-1,0-1.2c0-3.4-0.8-5.9-2.3-7.6s-3.5-2.5-6.1-2.5c-2.5,0-4.8,1-6.8,2.9c-2,1.9-3.4,4.7-4.1,8.5H260.9z"/>
		<path class="st2" d="M275.6,92.2l13.1-62.6h12.2l-13.1,62.6H275.6z"/>
	</g>
</g>
</svg>
